<svg width="26" height="26" viewBox="0 0 26 26" fill="none" xmlns="http://www.w3.org/2000/svg">
<g clip-path="url(#clip0_27_315)">
<path d="M25.2851 7.73504C24.7651 7.15004 24.0501 6.76004 23.2701 6.76004H13.2601C12.9351 6.76004 12.6101 7.02004 12.6101 7.41004C12.6101 7.80004 12.9351 8.06004 13.2601 8.06004H23.2701C23.6601 8.06004 24.0501 8.25504 24.3101 8.51504C24.5701 8.84004 24.7001 9.23004 24.5701 9.62004L23.9851 12.87H16.8351C16.5101 12.87 16.1851 13.13 16.1851 13.52C16.1851 13.91 16.5101 14.17 16.8351 14.17H23.7901L23.2051 17.29C23.1401 17.745 22.6851 18.07 22.2301 18.07H9.75006C9.29506 18.07 8.90506 17.745 8.77506 17.29L6.24006 3.18504C6.17506 2.86004 5.91506 2.66504 5.59006 2.66504H0.585059C0.260059 2.66504 -0.0649414 2.92504 -0.0649414 3.31504C-0.0649414 3.70504 0.260059 3.96504 0.585059 3.96504H5.07006L7.54006 17.615C7.67006 18.525 8.32006 19.175 9.16506 19.435C8.84006 19.89 8.58006 20.475 8.58006 21.125C8.58006 22.75 9.88006 24.05 11.5051 24.05C13.1301 24.05 14.4301 22.75 14.4301 21.125C14.4301 20.54 14.2351 19.955 13.9101 19.5H17.8751C17.5501 19.955 17.3551 20.54 17.3551 21.125C17.3551 22.75 18.6551 24.05 20.2801 24.05C21.9051 24.05 23.2051 22.75 23.2051 21.125C23.2051 20.475 23.0101 19.89 22.6851 19.435C23.5301 19.24 24.2451 18.525 24.4401 17.615L25.8701 9.94504C26.0001 9.16504 25.8051 8.38504 25.2851 7.73504ZM13.1301 21.06C13.1301 21.97 12.4151 22.685 11.5051 22.685C10.5951 22.685 9.88006 21.97 9.88006 21.06C9.88006 20.15 10.5951 19.435 11.5051 19.435C12.4151 19.435 13.1301 20.15 13.1301 21.06ZM20.3451 22.685C19.4351 22.685 18.7201 21.97 18.7201 21.06C18.7201 20.15 19.4351 19.435 20.3451 19.435C21.2551 19.435 21.9701 20.15 21.9701 21.06C21.9701 21.97 21.2551 22.685 20.3451 22.685Z" fill="#282222"/>
</g>
<defs>
<clipPath id="clip0_27_315">
<rect width="26" height="26" fill="white"/>
</clipPath>
</defs>
</svg>
