<svg width="26" height="26" viewBox="0 0 26 26" fill="none" xmlns="http://www.w3.org/2000/svg">
<path d="M13.0001 23.3351C12.6787 23.3358 12.3604 23.2731 12.0633 23.1504C11.7663 23.0277 11.4965 22.8474 11.2694 22.6201L2.90068 14.2513C2.23958 13.583 1.71808 12.7899 1.36656 11.918C1.01504 11.0462 0.840521 10.1131 0.853182 9.17318C0.859552 8.3118 1.0358 7.46014 1.37183 6.66698C1.70785 5.87382 2.19706 5.15475 2.81143 4.55095C3.42579 3.94715 4.15324 3.47049 4.95211 3.14828C5.75098 2.82606 6.60557 2.66461 7.46693 2.67318C8.34371 2.66435 9.21334 2.83168 10.0242 3.16525C10.8351 3.49882 11.5708 3.99184 12.1876 4.61506L13.0001 5.42756L13.6663 4.76131C14.8167 3.5804 16.3562 2.85641 17.9994 2.72346C19.6427 2.5905 21.2785 3.05758 22.6038 4.03818C23.3582 4.61916 23.9802 5.3542 24.4283 6.19436C24.8765 7.03452 25.1405 7.96052 25.2027 8.91068C25.265 9.86084 25.1241 10.8134 24.7895 11.7048C24.4548 12.5963 23.9341 13.4062 23.2619 14.0807L14.7307 22.6201C14.5036 22.8474 14.2338 23.0277 13.9368 23.1504C13.6398 23.2731 13.3214 23.3358 13.0001 23.3351ZM7.43443 4.29006C6.14298 4.28874 4.90168 4.78992 3.97318 5.68756C3.49982 6.143 3.12338 6.68941 2.86647 7.29398C2.60957 7.89855 2.47749 8.5488 2.47818 9.20568C2.47106 9.92825 2.60744 10.645 2.87941 11.3145C3.15138 11.984 3.55353 12.5928 4.06256 13.1057L12.4313 21.4744C12.5068 21.5506 12.5967 21.611 12.6957 21.6523C12.7947 21.6935 12.9009 21.7148 13.0082 21.7148C13.1154 21.7148 13.2216 21.6935 13.3207 21.6523C13.4197 21.611 13.5095 21.5506 13.5851 21.4744L22.1244 12.9269C22.6257 12.4151 23.013 11.803 23.2608 11.1308C23.5087 10.4587 23.6115 9.74166 23.5626 9.02693C23.5192 8.30488 23.3203 7.60072 22.9795 6.96266C22.6387 6.32459 22.1641 5.76769 21.5882 5.33006C20.5775 4.58491 19.3305 4.23258 18.0793 4.33871C16.8282 4.44484 15.6582 5.0022 14.7876 5.90693L13.5769 7.15006C13.5014 7.22621 13.4115 7.28666 13.3125 7.32791C13.2135 7.36916 13.1073 7.3904 13.0001 7.3904C12.8928 7.3904 12.7866 7.36916 12.6876 7.32791C12.5886 7.28666 12.4987 7.22621 12.4232 7.15006L11.0419 5.76881C10.0906 4.82572 8.80651 4.29458 7.46693 4.29006H7.43443Z" fill="#282222"/>
</svg>
