<svg width="26" height="26" viewBox="0 0 26 26" fill="none" xmlns="http://www.w3.org/2000/svg">
<path d="M13 13C14.1249 13 15.2245 12.6664 16.1598 12.0415C17.0951 11.4165 17.8241 10.5283 18.2546 9.48902C18.685 8.44976 18.7977 7.30619 18.5782 6.20293C18.3588 5.09966 17.8171 4.08624 17.0217 3.29083C16.2263 2.49542 15.2128 1.95374 14.1096 1.73429C13.0063 1.51483 11.8627 1.62746 10.8235 2.05794C9.78423 2.48841 8.89597 3.21739 8.27102 4.1527C7.64607 5.088 7.3125 6.18762 7.3125 7.3125C7.3125 8.82092 7.91172 10.2676 8.97833 11.3342C10.0449 12.4008 11.4916 13 13 13ZM13 3.25C13.8035 3.25 14.5889 3.48826 15.257 3.93466C15.9251 4.38105 16.4458 5.01553 16.7533 5.75785C17.0607 6.50018 17.1412 7.31701 16.9844 8.10506C16.8277 8.89311 16.4408 9.61697 15.8726 10.1851C15.3045 10.7533 14.5806 11.1402 13.7926 11.2969C13.0045 11.4537 12.1877 11.3732 11.4453 11.0658C10.703 10.7583 10.0685 10.2376 9.62216 9.56951C9.17576 8.90143 8.9375 8.11599 8.9375 7.3125C8.9375 6.23506 9.36551 5.20175 10.1274 4.43988C10.8892 3.67801 11.9226 3.25 13 3.25Z" fill="#282222"/>
<path d="M13.8125 14.625H12.1875C9.81713 14.625 7.54384 15.5666 5.86773 17.2427C4.19163 18.9188 3.25 21.1921 3.25 23.5625C3.25 23.778 3.3356 23.9847 3.48798 24.137C3.64035 24.2894 3.84701 24.375 4.0625 24.375H21.9375C22.153 24.375 22.3597 24.2894 22.512 24.137C22.6644 23.9847 22.75 23.778 22.75 23.5625C22.75 21.1921 21.8084 18.9188 20.1323 17.2427C18.4562 15.5666 16.1829 14.625 13.8125 14.625ZM4.92375 22.75C5.12354 20.963 5.97473 19.3123 7.31468 18.1132C8.65463 16.9142 10.3894 16.2509 12.1875 16.25H13.8125C15.6106 16.2509 17.3454 16.9142 18.6853 18.1132C20.0253 19.3123 20.8765 20.963 21.0763 22.75H4.92375Z" fill="#282222"/>
</svg>
